<svg xmlns="http://www.w3.org/2000/svg" width="18" height="18" fill="none" viewBox="0 0 18 18">
    <path fill="#8E8EC4" d="M15.96 0H2.04C1.5.001.98.216.599.599.216.98 0 1.499 0 2.04v10.32c.001.54.216 1.059.599 1.441.382.383.9.598 1.441.599H3.6v3c0 .116.034.23.098.328.063.098.154.174.26.221.107.047.225.062.34.043.115-.02.222-.071.308-.15L8.36 14.4h7.599c.54-.001 1.059-.216 1.441-.599.383-.382.598-.9.599-1.441V2.04c-.001-.54-.216-1.06-.599-1.441C17.02.216 16.501 0 15.96 0zm.84 12.36c0 .223-.088.436-.246.594-.158.157-.371.246-.594.246H8.128c-.15 0-.295.056-.406.158L4.8 16.036V13.8c0-.16-.063-.312-.176-.424-.112-.113-.265-.176-.424-.176H2.04c-.223 0-.436-.088-.594-.246-.157-.158-.246-.371-.246-.594V2.04c0-.223.089-.436.246-.594.158-.157.371-.246.594-.246h13.92c.223 0 .436.089.594.246.158.158.246.371.246.594v10.32z"/>
    <path fill="#8E8EC4" fill-rule="evenodd" d="M16.8 12.36c0 .223-.088.436-.246.594-.158.157-.371.246-.594.246H8.128c-.15 0-.295.056-.406.158L4.8 16.036V13.8c0-.16-.063-.312-.176-.424-.112-.113-.265-.176-.424-.176H2.04c-.223 0-.436-.088-.594-.246-.157-.158-.246-.371-.246-.594V2.04c0-.223.089-.436.246-.594.158-.157.371-.246.594-.246h13.92c.223 0 .436.089.594.246.158.158.246.371.246.594v10.32zM4.8 7.6h8.4c.16 0 .312.064.425.176.112.113.175.265.175.425 0 .159-.063.311-.176.424-.112.112-.265.176-.424.176H4.8c-.159 0-.312-.064-.424-.176C4.263 8.512 4.2 8.36 4.2 8.2c0-.16.063-.312.176-.425.112-.112.265-.175.424-.175zm0-3h8.4c.16 0 .312.063.425.175.112.113.175.265.175.425 0 .159-.063.311-.176.424-.112.112-.265.176-.424.176H4.8c-.159 0-.312-.064-.424-.176C4.263 5.51 4.2 5.359 4.2 5.2c0-.16.063-.312.176-.425.112-.112.265-.175.424-.175z" clip-rule="evenodd"/>
</svg>
