<svg xmlns="http://www.w3.org/2000/svg" width="20" height="20" fill="none" viewBox="0 0 20 20">
    <path fill="#8E8EC4" d="M18.701 5.378h-2.468V3.314c0-.725-.582-1.314-1.298-1.314h-8.87c-.716 0-1.298.59-1.298 1.314v5.029H2.299C1.583 8.343 1 8.932 1 9.656v5.967c0 .725.583 1.314 1.299 1.314h1.41v1.124c0 .358.197.68.514.84.132.066.274.099.415.099.197 0 .392-.064.557-.19l2.458-1.873h3.515c.716 0 1.299-.59 1.299-1.314v-1.65h.88l2.458 1.872c.165.126.36.19.557.19.141 0 .283-.033.415-.1.317-.16.514-.48.514-.839v-1.124h1.41c.716 0 1.299-.59 1.299-1.313V6.69c0-.724-.583-1.313-1.299-1.313zm.186 7.28c0 .104-.084.188-.186.188h-1.967c-.307 0-.556.252-.556.563v1.31l-2.31-1.76c-.096-.073-.214-.113-.335-.113H9.832c-.102 0-.186-.084-.186-.187V6.69c0-.103.084-.187.186-.187h8.87c.101 0 .185.084.185.187v5.968zm-7.719 3.153H7.467c-.121 0-.239.04-.335.114l-2.31 1.76v-1.31c0-.312-.249-.564-.556-.564H2.299c-.102 0-.186-.084-.186-.188V9.657c0-.103.084-.187.186-.187h6.234v3.19c0 .724.583 1.313 1.299 1.313h1.521v1.652c0 .103-.083.187-.185.187zM6.065 3.126h8.87c.102 0 .185.084.185.188v2.064H9.832c-.716 0-1.299.589-1.299 1.313v1.652H5.88v-5.03c0-.103.083-.187.185-.187z"/>
</svg>
