<svg xmlns="http://www.w3.org/2000/svg" width="20" height="20" fill="none" viewBox="0 0 20 20">
    <path fill="#8E8EC4" d="M16.248 19H3.74c-.727-.003-1.423-.29-1.936-.8-.513-.51-.802-1.2-.804-1.92V7.086c.003-.488.138-.965.391-1.383.253-.418.615-.761 1.048-.993l6.242-3.38c.402-.216.852-.33 1.31-.33.458 0 .908.114 1.31.33l6.26 3.362c.433.232.795.575 1.048.993.253.418.388.895.391 1.383v9.212c-.002.722-.292 1.414-.808 1.924S16.977 19 16.248 19zM9.994 2.186c-.257 0-.511.063-.737.184l-6.26 3.367c-.243.134-.445.329-.586.566-.14.237-.213.508-.212.783v9.194c0 .406.163.796.453 1.083.29.288.684.45 1.094.45h12.502c.41-.002.801-.165 1.09-.452.289-.287.45-.676.45-1.081V7.086c.001-.277-.074-.548-.217-.785-.142-.237-.347-.432-.592-.564l-6.247-3.361c-.226-.124-.48-.189-.738-.19z"/>
</svg>
