<svg xmlns="http://www.w3.org/2000/svg" width="20" height="20" fill="none" viewBox="0 0 20 20">
    <path fill="#8E8EC4" d="M9.762 0c-1.06 0-2.078.421-2.828 1.172-.75.75-1.172 1.767-1.172 2.828v.667H5.21c-.561 0-1.101.215-1.507.602-.406.388-.647.917-.673 1.478l-.527 10.966c-.013.295.033.59.137.866.103.277.261.53.465.743.204.214.449.384.72.5.271.117.563.177.858.178h10.16c.295 0 .588-.06.859-.177.271-.117.516-.287.72-.5.203-.215.362-.467.465-.744.103-.276.15-.57.136-.866l-.526-10.966c-.026-.561-.267-1.09-.673-1.478-.406-.387-.946-.603-1.507-.602h-.554V4c0-1.06-.421-2.078-1.171-2.828S10.823 0 9.762 0zM7.096 4c0-.707.28-1.386.78-1.886s1.179-.78 1.886-.78c.707 0 1.386.28 1.886.78s.781 1.179.781 1.886v.667H7.096V4zm8.066 2.807l.527 10.973c.004.115-.014.229-.054.337-.04.107-.101.206-.18.29-.08.082-.175.147-.28.192-.105.044-.218.067-.333.068H4.682c-.114 0-.227-.024-.333-.069-.105-.044-.2-.11-.28-.191-.078-.084-.139-.183-.18-.29-.04-.108-.058-.222-.053-.337l.526-10.973c.01-.218.104-.423.262-.573.158-.15.367-.234.585-.234h9.107c.217 0 .427.083.585.234.157.15.251.355.261.573z"/>
    <path fill="#8E8EC4" d="M15.162 6.807l.527 10.973c.004.115-.014.229-.054.337-.04.107-.101.206-.18.29-.08.082-.175.147-.28.192-.105.044-.218.067-.333.068H4.682c-.114 0-.227-.024-.333-.069-.105-.044-.2-.11-.28-.191-.078-.084-.139-.183-.18-.29-.04-.108-.058-.222-.053-.337l.526-10.973c.01-.218.104-.423.262-.573.158-.15.367-.234.585-.234h9.107c.217 0 .427.083.585.234.157.15.251.355.261.573z"/>
</svg>
